<svg width="34" height="34" viewBox="0 0 34 34" fill="none" xmlns="http://www.w3.org/2000/svg">
<path d="M32.7447 19.4737C32.8943 22.2101 31.7144 24.8405 29.6039 26.4471L30.8835 29.0775C31.2657 29.872 31.3155 30.8076 30.9832 31.6374C30.6674 32.4671 30.0193 33.1203 29.2216 33.4028L27.9088 33.8441C27.3621 34.0398 26.772 34.0515 26.2188 33.8778C25.6656 33.704 25.1764 33.3532 24.8178 32.8732L21.2947 28.4596C19.8157 28.1948 18.4198 27.524 17.2399 26.5177C16.409 26.7825 15.5781 26.9237 14.7472 26.9237C13.2848 26.9237 11.8223 26.4471 10.5926 25.5291C9.71183 25.8115 8.81445 25.9351 7.90044 25.9174C6.5876 25.9351 5.29138 25.6526 4.07825 25.123C2.91055 24.5695 1.91279 23.6785 1.19877 22.5517C0.484761 21.4248 0.0832421 20.1075 0.0400177 18.7499C-0.0929282 17.4788 0.106491 16.19 0.621656 15.0249C0.139727 13.7008 0.0898724 12.2532 0.505328 10.9114C1.1202 9.2343 2.28348 7.83963 3.72927 6.95692C4.69312 3.97337 7.4019 1.97846 10.3766 2.19031C13.0355 -0.457812 17.1069 -0.740278 20.065 1.5371C20.763 1.34291 21.4942 1.23698 22.2254 1.23698C24.4854 1.18402 26.6292 2.24327 28.0417 4.13226C31.4319 5.06793 33.8581 8.28098 33.9911 12.0237C34.0742 13.9833 33.5756 15.9076 32.5619 17.5494C32.6782 18.1849 32.7447 18.8205 32.7447 19.4737ZM24.4356 16.9845C25.3828 17.108 26.1306 17.8672 26.1306 18.8735C26.1306 19.3417 25.9556 19.7907 25.6439 20.1218C25.3323 20.4529 24.9096 20.6389 24.4688 20.6389H23.4219C22.8901 22.2277 21.9595 23.6224 20.7297 24.6817C21.1452 24.8405 21.5773 24.9288 22.0093 25.0524C30.5345 24.9288 29.5374 19.4031 29.5374 19.3148C29.4933 18.1021 28.9975 16.9577 28.1592 16.1334C27.3209 15.309 26.2086 14.8721 25.0671 14.9189C24.6263 14.9189 24.2036 14.7329 23.892 14.4018C23.5803 14.0708 23.4053 13.6217 23.4053 13.1535C23.4053 12.6853 23.5803 12.2363 23.892 11.9052C24.2036 11.5741 24.6263 11.3881 25.0671 11.3881C27.1111 11.4411 29.0721 12.2532 30.601 13.6831C30.684 13.1712 30.7339 12.6415 30.7339 12.1119C30.6342 9.92281 29.7036 8.01617 25.9645 7.64543C23.8872 2.41981 18.6524 5.31509 18.6524 6.93927C18.6026 7.34531 19.0014 8.21036 19.0679 8.26332C19.5086 8.26332 19.9313 8.44932 20.243 8.7804C20.5546 9.11148 20.7297 9.56052 20.7297 10.0287C20.7297 10.9997 19.9819 11.7941 19.0679 11.7941C18.1871 11.7588 17.3562 11.4058 16.6915 10.8055C15.8938 11.3528 14.9798 11.6882 14.0326 11.7941C13.0853 11.8824 12.3043 11.1763 12.2544 10.2053C12.2238 9.97467 12.2379 9.73984 12.2958 9.51522C12.3537 9.2906 12.4542 9.08092 12.5912 8.89906C12.7281 8.7172 12.8986 8.567 13.0922 8.45767C13.2858 8.34835 13.4983 8.28221 13.7168 8.26332C13.9827 8.22802 15.2789 8.01617 15.2789 6.90396C15.2789 5.73878 15.6944 4.62658 16.409 3.74387C14.8801 3.30252 13.2349 3.8851 11.5731 6.02125C8.51532 5.50928 7.26895 5.95063 6.35495 9.39319C4.77621 10.2229 3.9453 10.8055 3.5797 12.5709C5.37447 12.1825 7.2191 12.3414 8.93077 13.0123C9.76169 13.3477 10.227 14.3363 9.91125 15.2897C9.5955 16.2077 8.63165 16.6667 7.7675 16.3313C6.55437 15.7663 5.19167 15.731 3.9453 16.2253C3.41352 16.702 3.41352 17.6906 3.41352 18.4674C3.41352 19.7738 4.02839 20.9919 5.07534 21.6981C5.95611 22.1748 6.93659 22.4219 7.91706 22.4043C7.66779 21.9453 7.45175 21.4686 7.26895 20.9743C7.13812 20.5207 7.17797 20.0309 7.38012 19.6079C7.58226 19.1849 7.93095 18.8617 8.35284 18.7062C8.77473 18.5507 9.23694 18.575 9.64225 18.7742C10.0476 18.9733 10.3644 19.3316 10.5261 19.7738C11.1909 21.7864 12.8859 23.1634 14.8801 23.3929C17.1568 23.2693 19.1842 21.8393 20.1813 19.6326C20.5635 17.1963 22.4082 16.9845 24.4356 16.9845ZM27.7592 30.1721L26.7289 27.8771L25.549 28.1595L27.2108 30.3663L27.7592 30.1721V30.1721ZM20.0318 14.9719C20.0462 14.5209 19.8975 14.0811 19.6163 13.743C19.335 13.4048 18.9426 13.1939 18.5195 13.1535C17.3396 13.0829 16.1929 13.5066 15.3122 14.3363C14.3649 15.3603 13.8664 16.7726 13.9162 18.2026C13.9162 18.6708 14.0913 19.1199 14.403 19.4509C14.7146 19.782 15.1373 19.968 15.5781 19.968C16.5253 19.968 17.2399 19.1736 17.2399 18.2026C17.2399 17.7259 17.3562 17.2493 17.6221 16.8609C17.8215 16.6843 18.0708 16.5961 18.3367 16.5961C19.2507 16.649 20.0318 15.9252 20.0318 14.9719Z" fill="#FC69D3"/>
</svg>
